<svg width="218" height="46" viewBox="0 0 218 46" fill="none" xmlns="http://www.w3.org/2000/svg">
<g clip-path="url(#clip0_7473_78650)">
<path fill-rule="evenodd" clip-rule="evenodd" d="M23.1139 0.229492C35.6487 0.229492 45.9262 10.4845 45.9262 23.0769C45.9262 35.6986 35.6487 45.9713 23.1139 45.9713C10.547 45.9713 0.324219 35.6986 0.324219 23.0769C0.324219 10.4845 10.547 0.229492 23.1139 0.229492ZM19.9618 42.8619L29.69 25.9265L23.1139 25.9293L26.3796 20.2403H41.828L38.5576 25.9433L32.9683 25.9265L23.1139 43.1214C34.0921 43.1214 43.0867 34.1005 43.0867 23.0769C43.0867 12.0984 34.092 3.09026 23.1139 3.09026C22.3173 3.09026 21.51 3.13697 20.7603 3.23817L10.9508 20.2403H23.1139L19.8201 25.9265H4.39528L16.9791 4.0728C8.97184 6.67963 3.16056 14.2339 3.16056 23.0769C3.16056 33.0229 10.4527 41.3312 19.9618 42.8619Z" fill="#1F1A17"/>
<path fill-rule="evenodd" clip-rule="evenodd" d="M54.3008 34.1882H67.4212L68.1977 30.5961H59.6156L63.6881 11.3755H59.1252L54.3008 34.1882Z" fill="#1F1A17"/>
<path fill-rule="evenodd" clip-rule="evenodd" d="M82.421 16.183C82.421 18.3697 80.1383 19.3184 78.4761 19.779C77.8854 18.9586 77.2694 17.8826 77.2694 16.9014C77.2694 15.1699 78.51 14.1877 80.1383 14.1877C81.2441 14.1877 82.421 14.6429 82.421 16.183ZM80.625 30.0392C79.614 30.7929 78.1496 31.1813 76.7852 31.1813C74.6284 31.1813 72.8091 30.2729 72.8091 27.8799C72.8091 25.5614 74.6972 24.6172 76.5853 23.8968L80.625 30.0392ZM83.3635 34.1886H88.2536L85.6095 30.3373C87.8576 28.0505 89.1311 24.9392 89.5253 21.8026H85.5438C85.4788 23.7976 84.6664 25.6684 83.5562 27.2959L80.269 22.5556C83.2991 21.4444 86.1975 19.8119 86.1975 16.183C86.1975 12.5845 82.615 10.9849 79.9077 10.9849C76.4535 10.9849 73.1041 12.8432 73.1041 16.7677C73.1041 18.7978 73.7845 19.779 74.6972 21.0246C71.3749 22.0315 68.4375 24.3202 68.4375 28.1092C68.4375 32.7216 72.3478 34.5853 76.3557 34.5853C78.4761 34.5853 81.0825 33.9313 82.55 32.8807L83.3635 34.1886Z" fill="#1F1A17"/>
<path fill-rule="evenodd" clip-rule="evenodd" d="M88.9121 14.9734H94.9949L90.8587 34.1885H95.6164L99.7532 14.9734H105.494L106.244 11.376H89.6917L88.9121 14.9734Z" fill="#1F1A17"/>
<path d="M115.864 11.3823H128.419L127.627 14.9753H119.68L118.472 20.5985H126.069L125.353 24.1929H117.727L115.639 34.1955H111.076L115.864 11.3823Z" fill="#1F1A17"/>
<path d="M131.571 10.103H135.942L135.028 14.2881H130.661L131.571 10.103ZM129.976 17.3606H134.346L130.758 34.1959H126.392L129.976 17.3606Z" fill="#1F1A17"/>
<path d="M137.185 19.7819C137.379 18.7656 137.544 17.8827 137.61 17.3609H141.873L141.587 18.9926H141.649C142.854 17.8827 144.514 16.9702 146.407 16.9702C149.699 16.9702 151.883 19.0279 151.883 22.3656C151.883 23.639 151.554 24.9808 151.325 26.0233L149.567 34.1959H145.201L146.831 26.2584C147.06 25.1056 147.324 23.9605 147.324 22.7221C147.324 21.3175 146.34 20.3653 144.94 20.3653C141.911 20.3653 140.802 23.2138 140.249 25.732L138.458 34.1959H134.086L137.185 19.7819Z" fill="#1F1A17"/>
<path d="M159.025 31.3877C162.282 31.3877 163.295 29.1286 163.977 26.4132H162.443C160.326 26.4132 156.808 26.7745 156.808 29.6189C156.808 30.7951 157.917 31.3877 159.025 31.3877ZM163.295 31.6151H163.231C161.728 33.51 160.228 34.5885 157.815 34.5885C154.787 34.5885 152.637 32.8866 152.637 29.7812C152.637 24.2252 158.829 23.8035 162.935 23.8035H164.465C164.598 23.3399 164.598 22.8515 164.598 22.3652C164.598 20.6651 162.77 20.1682 161.24 20.1682C159.314 20.1682 157.459 20.6651 155.73 21.4773L156.351 17.9818C158.207 17.3335 160.098 16.9702 162.053 16.9702C165.413 16.9702 168.574 18.214 168.574 22.1678C168.574 24.4208 166.912 31.0215 166.522 34.1959H162.837L163.295 31.6151Z" fill="#1F1A17"/>
<path d="M172.491 19.7819C172.683 18.7656 172.849 17.8827 172.911 17.3609H177.179L176.885 18.9926H176.952C178.157 17.8827 179.819 16.9702 181.708 16.9702C184.999 16.9702 187.187 19.0279 187.187 22.3656C187.187 23.639 186.862 24.9808 186.631 26.0233L184.873 34.1959H180.506L182.133 26.2584C182.362 25.1056 182.625 23.9605 182.625 22.7221C182.625 21.3175 181.643 20.3653 180.247 20.3653C177.215 20.3653 176.107 23.2138 175.551 25.732L173.758 34.1959H169.393L172.491 19.7819Z" fill="#1F1A17"/>
<path d="M201.788 21.2199C200.942 20.6651 199.802 20.3648 198.595 20.3648C195.109 20.3648 193.152 23.6387 193.152 26.8072C193.152 28.9972 193.87 31.189 196.867 31.189C197.944 31.189 199.282 30.892 200.421 30.3387L199.931 33.806C198.595 34.4551 197.161 34.5883 195.73 34.5883C191.394 34.5883 188.592 31.679 188.592 27.3287C188.592 21.4464 192.466 16.9702 198.495 16.9702C200.128 16.9702 201.689 17.264 202.862 17.6218L201.788 21.2199Z" fill="#1F1A17"/>
<path d="M213.561 24.1263C213.626 23.7368 213.657 23.3765 213.657 22.986C213.657 21.1875 212.71 20.1682 210.884 20.1682C208.182 20.1682 207.006 21.8063 206.161 24.1263H213.561ZM205.575 27.1332C205.575 30.2403 207.233 31.3877 210.235 31.3877C212.026 31.3877 213.755 30.9269 215.384 30.1764L214.829 33.642C213.134 34.1646 211.28 34.5884 209.485 34.5884C204.661 34.5884 201.406 32.2324 201.406 27.2316C201.406 22.0003 205.443 16.9702 210.952 16.9702C215.087 16.9702 217.828 19.098 217.828 23.3765C217.828 24.6509 217.663 25.8929 217.402 27.1331L205.575 27.1332Z" fill="#1F1A17"/>
</g>
<defs>
<clipPath id="clip0_7473_78650">
<rect width="218" height="46" fill="white"/>
</clipPath>
</defs>
</svg>
