<svg width="291" height="126" viewBox="0 0 291 126" fill="none" xmlns="http://www.w3.org/2000/svg">
<g clip-path="url(#clip0_1_3)">
<path d="M0 54.646V109.215L22.4103 99.741V45.1359L0 54.646Z" fill="#C4D700"/>
<path d="M50.6361 9.48453V64.0999L73.067 54.646V0L50.6361 9.48453Z" fill="#C4D700"/>
<path d="M25.3155 43.9235V98.503L47.7361 65.3379V10.6918L25.3155 43.9235Z" fill="#C4D700"/>
<path d="M114.31 27.7834C114.31 32.0909 115.737 36.1016 122.687 41.7698L125.536 44.1128C131.064 48.6709 132.598 51.0139 132.598 55.0553C132.598 59.0967 129.657 62.9284 124.042 62.9284C121.722 62.9284 116.271 62.3605 115.172 56.9072C115.008 56.0682 115.008 55.2292 115.008 54.6716C115.008 54.3289 115.008 53.5206 114.084 53.5206C113.211 53.5206 113.165 54.4823 113.124 54.9632L113.063 55.7101C112.955 56.9993 112.806 59.112 112.806 61.6443C112.806 63.3581 112.842 63.8799 113.981 64.458C116.42 65.6192 119.268 66.1973 122.661 66.1973C126.485 66.1973 129.883 65.256 132.434 63.4706C136.541 60.5649 137.998 56.0068 137.998 52.6714C137.998 47.7449 136.464 43.6984 128.626 37.5391L126.86 36.1476C120.839 31.2263 119.34 29.2261 119.34 25.9776C119.34 21.8952 122.281 19.1379 126.624 19.1379C131.849 19.1379 133.599 21.3018 134.102 22.2226C134.441 22.8416 134.811 24.4684 134.877 25.1846C134.903 25.6655 135.011 26.4431 135.848 26.4431C136.756 26.4431 136.756 25.1846 136.756 24.5298C136.756 21.1739 136.895 19.1839 136.956 18.3449L136.997 17.8385C136.997 17.2451 136.633 16.9381 135.909 16.9381C135.473 16.9381 135.016 16.9177 133.81 16.6363C131.982 16.2117 130.088 16.0173 127.835 16.0173C119.746 16.0173 114.32 20.7391 114.32 27.7783L114.31 27.7834Z" fill="#004831"/>
<path d="M191.288 17.3116C191.304 17.3627 174.606 55.6283 174.514 55.8073C174.411 55.6896 157.072 17.2399 157.072 17.2399C156.831 16.6619 156.502 16.0326 155.784 16.0326C154.942 16.0326 154.752 17.0762 154.66 17.5367C154.66 17.5571 150.43 58.7642 150.43 58.7642C150.225 60.9639 150.035 63.0307 148.51 63.353C147.669 63.5218 147.402 63.5218 146.842 63.5218C146.247 63.5218 145.795 63.8441 145.795 64.2738C145.795 64.6575 145.98 65.2765 147.227 65.2765C148.259 65.2765 150.107 65.1895 150.846 65.1588C151.616 65.123 151.837 65.123 151.837 65.123H153.294C153.998 65.123 156.097 65.2407 157.596 65.2765C158.099 65.3021 159.084 65.2765 159.084 64.2738C159.084 63.8441 158.658 63.5065 158.14 63.5065C157.544 63.5065 157.005 63.4706 156.056 63.2251C155.368 63.087 154.88 62.4475 154.88 61.7108C154.88 60.6314 154.88 59.5315 154.942 58.5442C154.942 58.5442 157.098 30.8068 157.154 30.8068C157.005 30.8068 171.321 62.2736 171.321 62.2736C172.507 64.6626 172.753 65.1639 173.426 65.1639C174.185 65.1639 174.411 64.6575 175.345 62.4935C175.376 62.4782 189.507 30.2134 189.507 30.2134L192.191 61.189C192.217 61.5727 192.217 61.8848 192.253 62.161C192.268 62.6675 192.268 63.2558 192.15 63.3018C191.642 63.4911 191.55 63.8339 191.55 64.1357C191.55 64.9337 192.448 65.1281 193.572 65.1997C195.851 65.3276 202.129 65.2816 203.392 65.2816C204.942 65.2816 205.065 64.5091 205.065 64.2789C205.065 64.0487 204.988 63.5269 204.156 63.5269C203.587 63.5269 202.129 63.5269 200.502 62.9949C198.238 62.1866 197.874 58.7693 197.653 56.7128L193.726 18.1403C193.665 17.2553 193.536 16.0378 192.561 16.0378C191.801 16.0378 191.473 16.846 191.283 17.3167L191.288 17.3116Z" fill="#004831"/>
<path d="M289.635 40.7466C288.387 40.7722 286.211 40.8643 284.907 40.9001C284.24 40.9155 283.609 40.9257 283.198 40.9104C281.956 40.8592 279.826 40.8183 277.86 40.8183C277.521 40.8183 276.494 40.8183 276.494 41.7544C276.494 42.22 276.884 42.5678 277.398 42.5678C277.911 42.5678 278.388 42.5627 278.789 42.6702C280.801 43.2687 281.088 43.6882 281.088 48.722V59.3985C281.088 60.2784 280.796 60.8412 280.128 61.23C278.753 62.0894 275.858 62.4833 273.753 62.4833C268.02 62.4833 263.015 60.2682 258.873 55.8994C256.789 53.7047 252.847 47.305 252.847 38.7976C252.847 32.0192 254.936 26.1771 258.437 23.1742C262.589 19.6239 266.721 19.1328 270.566 19.1328C277.634 19.1328 282.392 21.6599 283.814 24.0029C284.779 25.6706 284.948 27.5941 284.979 27.9727C285.03 28.5047 285.107 29.3079 285.816 29.3079C286.776 29.3079 286.776 28.249 286.776 27.5532C286.776 23.0054 286.991 20.8312 287.104 19.6648C287.15 19.2044 287.181 18.8821 287.181 18.6314C287.181 18.304 287.043 17.7362 286.067 17.6339C284.543 17.5674 282.561 17.3065 281.448 17.0149C279.815 16.6414 275.848 15.9354 272.475 15.9354C267.964 15.9354 262.107 16.3959 256.805 19.9717C250.619 24.182 246.924 32.0397 246.924 40.9922C246.924 49.9447 250.717 56.1552 253.961 59.2093C258.76 63.7469 265.279 66.0541 273.338 66.0541C276.962 66.0541 282.156 65.297 285.867 63.1586C286.791 62.5754 286.827 62.1968 286.827 59.3985V52.3644C286.827 49.7503 286.827 47.8575 286.94 45.8521C287.053 43.6984 287.489 42.9259 288.726 42.6804C289.399 42.5576 289.727 42.5423 290.102 42.5013C290.574 42.4451 291 42.1535 291 41.6879C291 40.7466 290.21 40.7364 289.635 40.7466Z" fill="#004831"/>
<path d="M215.182 60.2682C214.915 62.1917 214.607 63.2046 213.657 63.3939C212.97 63.5474 212.297 63.6343 211.856 63.6343C211.24 63.6343 210.968 64.018 210.968 64.3966C210.968 65.2816 211.979 65.2816 212.359 65.2816C213.709 65.2816 216.07 65.1895 217.486 65.1333C218.046 65.1128 218.862 65.1077 219.268 65.123C220.674 65.1742 223.6 65.2867 226.264 65.2867C227.48 65.2867 227.66 64.7291 227.66 64.4017C227.66 64.0231 227.383 63.6395 226.767 63.6395C226.233 63.6395 224.888 63.5167 223.99 63.3888C222.45 63.1842 222.07 62.1815 221.87 60.2784C221.557 57.6694 221.557 52.5946 221.557 46.7167C221.557 46.7167 221.572 41.7238 221.613 41.2071C223.99 41.2071 229.667 41.2275 231.063 41.3912C232.793 41.6112 233.722 42.573 234.014 43.3864C234.22 44.0054 234.292 44.742 234.353 45.3252L234.374 45.5145C234.374 46.0926 234.697 46.466 235.2 46.466C236.027 46.466 236.027 45.4787 236.027 44.8904C236.027 44.4607 236.155 41.9488 236.278 40.7211C236.396 39.4421 236.56 38.5571 236.668 37.9739C236.74 37.5851 236.781 37.3549 236.781 37.1759C236.781 36.4034 236.34 36.2909 236.078 36.2909C235.678 36.2909 235.441 36.6029 235.21 36.9047L235.072 37.0838C234.6 37.7693 233.917 37.9279 232.469 38.0456C231.602 38.1069 221.577 38.2093 221.577 38.2093C221.577 38.199 221.557 20.6828 221.557 20.6828C221.557 20.381 221.598 20.381 221.726 20.381L231.412 20.5703C233.722 20.6317 235.031 21.6702 235.349 22.3505C235.708 23.1384 235.878 24.141 235.878 24.5708C235.878 25.6297 236.509 25.7116 236.704 25.7116C237.017 25.7116 237.423 25.5376 237.587 24.6987C237.674 24.1973 237.751 22.8826 237.818 21.8236C237.854 21.2507 237.885 20.7544 237.905 20.5345C238.013 19.5164 238.167 18.8565 238.275 18.3705C238.352 18.0175 238.413 17.7669 238.413 17.5469C238.413 16.8921 238.028 16.5954 237.649 16.5954C237.407 16.5954 237.207 16.7079 237.012 16.8153C236.904 16.8767 236.786 16.9432 236.648 16.9893C236.247 17.1223 235.529 17.153 234.692 17.1888L233.984 17.2195C232.839 17.2706 224.534 17.2399 220.541 17.2246L215.962 17.1581C214.571 17.0916 212.893 17.0916 211.414 17.0916C211.034 17.0916 210.023 17.0916 210.023 17.9766C210.023 18.4166 210.398 18.7389 210.911 18.7389C211.455 18.7389 212.497 18.8002 212.97 18.9179C214.725 19.2913 215.243 19.982 215.372 22.1408C215.495 24.1359 215.495 25.8957 215.495 35.6616V46.6962C215.495 52.5742 215.495 57.649 215.187 60.2477L215.182 60.2682Z" fill="#004831"/>
<path d="M121.665 97.219C121.414 97.219 120.767 97.1576 120.341 97.1013C119.628 97.0041 119.448 96.5386 119.356 95.6434C119.207 94.3951 119.207 91.9652 119.207 89.1515V83.867C119.207 79.1912 119.207 78.3471 119.268 77.3905C119.325 76.3571 119.545 76.0041 120.223 75.8814C120.562 75.8251 120.726 75.7995 120.916 75.7995C121.178 75.7995 121.378 75.6307 121.378 75.3954C121.378 74.9349 120.849 74.9349 120.675 74.9349C120.028 74.9349 118.894 74.981 118.221 75.0066C117.954 75.0168 117.764 75.027 117.723 75.027C117.682 75.027 117.508 75.0168 117.251 75.0117C116.604 74.9861 115.398 74.9401 114.679 74.9401C114.505 74.9401 113.971 74.9401 113.971 75.4005C113.971 75.6307 114.176 75.8046 114.438 75.8046C114.608 75.8046 114.982 75.8302 115.321 75.9223C115.721 76.0092 116.106 76.2548 116.173 77.4007C116.235 78.3522 116.235 79.1963 116.235 83.8772V89.1617C116.235 91.9754 116.235 94.4053 116.081 95.6485C115.958 96.5539 115.819 97.0246 115.378 97.1167C115.054 97.1883 114.736 97.2343 114.525 97.2343C114.207 97.2343 114.058 97.4339 114.058 97.6334C114.058 98.0938 114.592 98.0938 114.767 98.0938C115.413 98.0938 116.548 98.0477 117.22 98.0222C117.482 98.0119 117.672 98.0017 117.718 98.0017C117.749 98.0017 117.877 98.0068 118.072 98.0119C118.745 98.0375 120.151 98.0887 121.424 98.0887C122.061 98.0887 122.132 97.7664 122.132 97.6282C122.132 97.4287 121.989 97.2292 121.665 97.2292V97.219Z" fill="#004831"/>
<path d="M187.51 85.4375C187.546 86.609 187.474 92.2158 187.474 93.4896C187.474 95.1062 187.474 96.5488 188.855 96.5488C189.199 96.5488 189.563 96.4926 189.779 96.2879C189.892 96.1805 190.056 96.0321 190.179 96.0526C190.287 96.068 190.344 96.1293 190.323 96.2368C190.2 96.8455 188.501 98.237 187.018 98.2933C185.662 98.3444 185.406 97.572 185.236 96.7586C185.18 96.4772 185.062 96.2061 184.754 96.2061C184.549 96.2061 184.236 96.4465 183.922 96.687C182.578 97.7203 180.884 98.3035 179.37 98.3035C177.296 98.3035 174.986 97.2036 174.986 94.656C174.986 90.5634 180.786 88.8088 182.788 88.2256C184.857 87.6066 185.103 87.1922 185.067 85.7496C184.985 82.7927 183.414 81.6212 181.828 81.6212C179.549 81.6212 178.995 83.5652 178.892 84.046C178.651 85.0794 178.41 86.3174 177.065 86.3174C176.167 86.3174 175.443 85.5961 175.443 84.6292C175.443 82.5983 178.964 80.7617 181.859 80.7617C184.585 80.7617 187.449 81.9997 187.521 85.4375H187.51ZM184.816 94.656C184.99 94.2416 185.057 94.1035 185.057 90.0468C185.057 89.3561 185.057 88.7729 184.333 88.7729C183.091 88.7729 177.912 91.0801 177.912 94.3133C177.912 95.2392 178.497 96.8251 180.879 96.8251C182.054 96.8251 184.328 95.7917 184.816 94.656Z" fill="#004831"/>
<path d="M134.498 97.5771C134.513 97.4441 134.621 97.2395 134.99 97.2139C135.226 97.1985 135.842 97.1371 136.176 97.0809C136.51 97.0246 136.71 96.8353 136.838 96.513C137.136 95.7661 137.121 95.0857 137.121 89.5045C137.121 86.2151 137.121 84.9311 136.392 83.8209C135.627 82.6443 134.513 82.5369 134.097 82.5369C132.983 82.5369 131.526 83.1252 130.55 84.0972C129.508 85.1715 129.508 85.6933 129.508 89.6733C129.508 90.5737 129.478 94.9783 129.529 95.6075C129.632 96.8097 130.006 97.0041 130.858 97.1064C131.29 97.1576 132.229 97.0604 132.255 97.5771C132.27 97.8482 132.049 98.0631 131.726 98.0631C131.402 98.0631 129.257 97.9863 128.451 97.9915C127.645 97.9915 126.064 98.0324 125.089 98.0631C124.391 98.0631 124.427 97.6282 124.427 97.5924C124.437 97.1218 125.13 97.1883 125.654 97.1525C126.86 97.0706 126.737 96.4209 126.911 95.9349C127.188 95.1369 127.173 90.5072 127.173 89.2948C127.173 83.6828 127.137 82.8131 125.607 82.8131C125.469 82.8131 124.904 82.9257 124.766 82.9257C124.627 82.9257 124.417 82.8899 124.417 82.6136C124.417 82.3374 124.637 82.2555 125.643 82.0509C126.198 81.9128 129.118 81.0482 129.226 81.0482C129.575 81.0482 129.575 81.1863 129.575 82.5727C129.575 83.0587 129.575 83.3349 129.816 83.3349C130.058 83.3349 129.991 83.161 131.243 82.2965C132.491 81.4319 133.851 81.0482 135.134 81.0482C137.639 81.0482 138.681 82.3988 139.03 83.3708C139.518 84.7213 139.518 85.3096 139.518 90.6811C139.518 91.7196 139.523 94.8606 139.702 95.7917C139.826 96.6256 140.524 97.1525 141.437 97.1934C142.084 97.2241 142.295 97.306 142.3 97.6231C142.3 98.1398 141.668 98.0989 141.181 98.0631C139.687 97.9454 137.608 98.0119 135.108 98.0631C134.564 98.0733 134.482 97.7152 134.498 97.5771Z" fill="#004831"/>
<path d="M234.82 88.9571C234.369 88.9571 233.712 88.9571 233.712 90.0621C233.712 94.2672 236.581 97.1627 239.45 97.1627C241.041 97.1627 242.566 96.2317 243.634 95.2341C243.839 95.0602 244.66 94.037 244.978 93.9859C245.148 93.9603 245.291 94.0626 245.291 94.3388C245.291 95.096 242.869 98.6463 238.306 98.6463C233.465 98.6463 230.729 94.8197 230.729 89.8217C230.729 84.0972 234.292 81.0636 238.064 81.0636C243.428 81.0636 244.948 86.7164 244.948 88.1642C244.948 88.7832 244.599 88.9571 243.911 88.9571H234.815H234.82ZM241.185 87.7447C241.945 87.7447 242.325 87.5708 242.325 86.7471C242.325 85.4375 241.077 81.9946 238.172 81.9946C234.954 81.9946 233.953 86.2304 233.953 86.9876C233.953 87.7447 234.538 87.7447 234.851 87.7447H241.18H241.185Z" fill="#004831"/>
<path d="M165.316 76.0451C165.316 75.0628 166.147 73.9937 167.728 73.9937C169.109 73.9937 169.776 75.0577 169.776 75.9223C169.776 76.9454 169.068 78.0862 167.487 78.0862C166.619 78.0862 165.316 77.2984 165.316 76.0399V76.0451Z" fill="#004831"/>
<path d="M169.453 91.515C169.453 92.4153 169.422 95.0244 169.473 95.6536C169.576 96.8558 169.951 97.0502 170.803 97.1525C171.234 97.2037 172.173 97.1065 172.199 97.6231C172.214 97.8943 171.994 98.1091 171.67 98.1091C171.342 98.1091 169.201 98.0324 168.395 98.0375C167.589 98.0375 165.639 98.0784 164.664 98.1091C163.966 98.1091 164.002 97.6743 164.002 97.6385C164.012 97.1678 164.705 97.2343 165.228 97.1985C166.435 97.1167 166.455 96.4823 166.563 95.9452C166.727 95.1164 166.753 90.7937 166.753 89.5812C166.753 83.9693 166.717 82.8797 165.187 82.8797C165.049 82.8797 164.484 82.9922 164.345 82.9922C164.207 82.9922 163.996 82.9564 163.996 82.6801C163.996 82.4039 164.217 82.322 165.223 82.1174C165.778 81.9793 169.068 81.1147 169.176 81.1147C169.525 81.1147 169.525 81.2529 169.525 82.6392L169.458 91.515H169.453Z" fill="#004831"/>
<path d="M268.651 76.0451C268.651 75.0628 269.483 73.9937 271.064 73.9937C272.445 73.9937 273.112 75.0577 273.112 75.9223C273.112 76.9454 272.403 78.0862 270.823 78.0862C269.955 78.0862 268.651 77.2984 268.651 76.0399V76.0451Z" fill="#004831"/>
<path d="M272.788 91.515C272.788 92.4153 272.758 95.0244 272.809 95.6536C272.912 96.8558 273.286 97.0502 274.138 97.1525C274.57 97.2037 275.509 97.1065 275.535 97.6231C275.55 97.8943 275.329 98.1091 275.006 98.1091C274.677 98.1091 272.537 98.0324 271.731 98.0375C270.925 98.0375 268.975 98.0784 267.999 98.1091C267.301 98.1091 267.337 97.6743 267.337 97.6385C267.348 97.1678 268.04 97.2343 268.564 97.1985C269.77 97.1167 269.791 96.4823 269.899 95.9452C270.063 95.1164 270.089 90.7937 270.089 89.5812C270.089 83.9693 270.053 82.8797 268.523 82.8797C268.384 82.8797 267.82 82.9922 267.681 82.9922C267.543 82.9922 267.332 82.9564 267.332 82.6801C267.332 82.4039 267.553 82.322 268.559 82.1174C269.113 81.9793 272.403 81.1147 272.511 81.1147C272.86 81.1147 272.86 81.2529 272.86 82.6392L272.794 91.515H272.788Z" fill="#004831"/>
<path d="M277.896 82.8131C277.352 82.8336 276.977 82.6648 276.956 82.2146C276.936 81.7695 277.259 81.6161 278.255 81.4933C279.815 81.2989 281.345 79.1401 281.489 76.3418C281.504 76.0348 281.632 75.4926 282.079 75.4926C282.628 75.4926 282.767 75.9479 282.731 76.2701C282.587 77.7384 282.731 80.685 282.731 80.685C282.731 80.9919 282.89 81.4575 283.588 81.5393C284.563 81.6519 287.33 81.5393 287.33 81.5393C287.674 81.5393 288.187 81.6928 288.187 82.1737C288.187 82.4909 287.966 82.8694 287.433 82.8285C286.421 82.7518 283.588 82.8285 283.588 82.8285C283.485 82.8285 282.936 82.8643 282.772 83.5089C282.674 83.8977 282.659 87.2843 282.659 87.9698C282.659 88.9929 282.659 94.4667 282.762 94.9476C283.208 96.8609 284.784 96.8609 285.128 96.8609C285.847 96.8609 286.622 96.5028 287.376 95.9196C287.581 95.7815 288.341 94.9578 288.659 95.0806C288.788 95.1318 288.865 95.2187 288.865 95.3518C288.865 95.9656 286.74 98.3291 283.855 98.3291C280.252 98.3291 280.067 95.628 280.067 92.1749C280.067 92.0726 280.134 84.9669 280.067 83.8005C280.067 83.6317 280.113 83.0485 279.287 82.8387C279.287 82.8387 278.732 82.7773 277.885 82.808L277.896 82.8131Z" fill="#004831"/>
<path d="M197.222 78.0811C194.948 80.6799 194.198 84.1381 194.275 86.5272C194.373 90.3281 195.615 93.3464 197.971 95.4899C200.368 97.6845 203.376 98.6412 207.452 98.5388C209.13 98.4979 211.348 98.2421 212.559 97.6896C213.118 97.4032 213.211 97.2906 213.39 96.6665C213.642 95.6075 213.899 92.9678 213.893 92.7479C213.878 92.1391 213.591 92.0828 213.457 92.0828C213.077 92.0879 213.047 92.4767 212.98 92.7274C212.857 93.3055 212.6 94.5435 212.066 95.1778C211.029 96.3954 209.453 96.6818 207.405 96.733C204.649 96.8046 202.093 95.715 200.178 93.6636C198.377 91.6991 197.304 88.9827 197.227 86.2049C197.155 83.6419 197.365 80.7157 199.475 78.429C200.805 76.9505 202.837 76.1985 205.696 76.132C208.201 76.0655 210.306 76.8636 211.188 77.636C211.871 78.2243 212.256 79.2577 212.384 80.5162C212.41 80.8743 212.41 81.3603 212.836 81.3501C213.267 81.3398 213.283 80.8385 213.283 80.5008V79.447C213.283 78.7973 213.283 77.9839 213.283 77.4058C213.303 76.7459 213.339 76.3571 213.36 76.1013L213.385 75.7023C213.38 75.3749 213.195 75.2061 212.8 75.1754C211.953 75.1447 211.081 74.9912 210.08 74.8224L209.967 74.8019C208.288 74.5206 206.528 74.5257 205.855 74.5513C202.057 74.6587 199.239 75.8097 197.232 78.076L197.222 78.0811Z" fill="#004831"/>
<path d="M218.949 84.6599C218.806 82.9666 218.339 82.9717 217.759 83.0127C216.932 83.074 216.47 83.2991 216.229 83.2991C216.018 83.2991 215.88 83.1252 215.88 82.9513C215.88 82.6699 215.957 82.5932 217.507 82.1993C218.554 81.9435 221.115 81.0329 221.29 81.0329C221.393 81.0329 221.429 81.0687 221.464 81.1403V82.675C221.464 84.5218 221.408 84.6701 221.757 84.6701C221.932 84.6701 222.003 84.5985 222.491 83.9744C222.773 83.5907 224.929 81.038 227.48 81.038C228.774 81.038 229.544 81.8412 229.544 83.0229C229.544 84.2046 228.635 84.8697 227.798 84.8697C227.064 84.8697 226.715 84.486 226.433 84.1381C226.223 83.9284 225.91 83.5447 225.422 83.5447C224.549 83.5447 223.112 84.5883 222.45 85.8058C221.613 87.3047 221.403 88.1233 221.403 93.2799C221.403 93.6533 221.418 95.3671 221.511 95.9043C221.603 96.4414 221.711 96.953 222.465 97.0911C223.22 97.2292 223.302 97.0758 223.856 97.2548C224.411 97.439 224.18 97.8994 223.995 98.0068C223.733 98.1603 223.21 98.1091 222.594 98.0733C221.973 98.0375 220.674 98.0426 219.827 98.0375C218.98 98.0273 217.353 98.0989 217.107 98.0989C216.86 98.0989 216.393 98.0887 216.342 97.6896C216.285 97.2906 216.778 97.219 217.153 97.2036C217.733 97.1729 218.262 97.2446 218.58 96.7586C218.98 96.1498 218.99 94.0728 219.001 93.817C219.098 91.5559 219.073 86.4453 218.954 84.665L218.949 84.6599Z" fill="#004831"/>
<path d="M262.805 96.6716C263.185 96.8762 263.657 97.0604 264.365 97.1474C264.93 97.219 264.986 97.3929 264.976 97.5924C264.966 97.7868 264.807 98.0273 264.299 98.017C263.79 98.0068 262.42 97.9352 261.937 97.9198C261.46 97.9045 260.865 97.971 260.336 98.0068C259.987 98.0426 259.72 97.9045 259.689 97.531C259.623 97.086 259.628 96.8762 259.422 96.8762C259.217 96.8762 258.421 97.6334 258.221 97.7357C256.923 98.5542 255.629 98.6565 254.911 98.6565C249.993 98.6565 248.217 94.0626 248.217 89.9444C248.217 83.4475 252.452 81.304 255.316 81.304C255.691 81.304 256.373 81.3807 257.118 81.6007C258.042 81.8718 258.832 82.5318 259.207 82.5318C259.617 82.5318 259.653 82.0202 259.653 81.7133C259.653 81.304 259.689 79.1605 259.689 78.6848C259.689 77.1859 259.689 75.6716 257.539 75.6716C257.369 75.6716 256.62 75.7739 256.548 75.7739C256.414 75.7739 256.209 75.6716 256.209 75.5028C256.209 75.1958 256.379 75.16 257.78 74.7201C258.226 74.582 261.568 73.5281 261.773 73.5281C261.84 73.5281 261.943 73.5281 262.045 73.6969C262.148 73.8351 262.148 75.9786 262.148 76.352C262.148 78.8689 262.081 90.9881 262.081 93.7812C262.025 95.9298 262.317 96.4209 262.8 96.6818L262.805 96.6716ZM259.525 94.2263C259.658 93.4794 259.658 89.9035 259.658 87.76C259.658 85.857 259.658 85.0743 258.873 84.087C258.329 83.3708 257.472 82.762 256.178 82.762C253.514 82.762 251.092 85.5194 251.092 90.2821C251.092 93.8222 252.524 97.1883 255.665 97.1883C256.825 97.1883 259.114 96.5744 259.525 94.2263Z" fill="#004831"/>
<path d="M159.469 96.6716C159.849 96.8762 160.321 97.0604 161.03 97.1474C161.594 97.219 161.651 97.3929 161.64 97.5924C161.63 97.792 161.471 98.0273 160.963 98.017C160.455 98.0068 159.084 97.9352 158.602 97.9198C158.124 97.9045 157.529 97.971 157 98.0068C156.651 98.0426 156.384 97.9045 156.354 97.531C156.287 97.086 156.292 96.8762 156.087 96.8762C155.881 96.8762 155.086 97.6334 154.886 97.7357C153.587 98.5542 152.293 98.6565 151.575 98.6565C146.657 98.6565 144.881 94.0626 144.881 89.9444C144.881 83.4475 149.116 81.304 151.98 81.304C152.355 81.304 153.038 81.3807 153.782 81.6007C154.706 81.8718 155.496 82.5318 155.871 82.5318C156.282 82.5318 156.318 82.0202 156.318 81.7133C156.318 81.304 156.354 79.1605 156.354 78.6848C156.354 77.1859 156.354 75.6716 154.203 75.6716C154.033 75.6716 153.284 75.7739 153.212 75.7739C153.079 75.7739 152.873 75.6716 152.873 75.5028C152.873 75.1958 153.043 75.16 154.444 74.7201C154.891 74.582 158.232 73.5281 158.438 73.5281C158.504 73.5281 158.607 73.5281 158.71 73.6969C158.812 73.8351 158.812 75.9786 158.812 76.352C158.812 78.8689 158.745 90.9881 158.745 93.7812C158.689 95.9298 158.982 96.4209 159.464 96.6818L159.469 96.6716ZM156.189 94.2263C156.323 93.4794 156.323 89.9035 156.323 87.76C156.323 85.857 156.323 85.0743 155.537 84.087C154.993 83.3708 154.136 82.762 152.843 82.762C150.179 82.762 147.756 85.5194 147.756 90.2821C147.756 93.8222 149.188 97.1883 152.329 97.1883C153.489 97.1883 155.779 96.5744 156.189 94.2263Z" fill="#004831"/>
<path d="M115.116 112.152H119.879C120.644 112.152 121.27 112.264 121.753 112.484C122.235 112.704 122.61 112.981 122.872 113.313C123.133 113.646 123.313 114.009 123.411 114.398C123.508 114.791 123.554 115.15 123.554 115.482C123.554 115.815 123.508 116.173 123.411 116.562C123.313 116.95 123.133 117.308 122.872 117.641C122.61 117.973 122.235 118.245 121.753 118.465C121.27 118.679 120.644 118.787 119.879 118.787H117.005V122.915H115.116V112.157V112.152ZM117.005 117.247H119.771C119.982 117.247 120.197 117.216 120.423 117.155C120.644 117.094 120.849 116.996 121.034 116.863C121.219 116.725 121.373 116.546 121.486 116.321C121.604 116.096 121.66 115.81 121.66 115.467C121.66 115.124 121.609 114.822 121.511 114.592C121.409 114.362 121.275 114.178 121.106 114.039C120.936 113.906 120.736 113.809 120.516 113.763C120.295 113.712 120.059 113.686 119.807 113.686H117.01V117.242L117.005 117.247Z" fill="#7B6A54"/>
<path d="M124.961 115.119H126.578V116.628H126.608C126.66 116.418 126.757 116.214 126.901 116.009C127.045 115.81 127.224 115.625 127.43 115.457C127.635 115.293 127.866 115.16 128.117 115.057C128.369 114.955 128.626 114.909 128.887 114.909C129.088 114.909 129.226 114.914 129.303 114.924C129.38 114.935 129.457 114.945 129.539 114.955V116.613C129.416 116.592 129.293 116.577 129.17 116.562C129.041 116.546 128.918 116.541 128.8 116.541C128.508 116.541 128.235 116.597 127.979 116.715C127.722 116.833 127.496 117.001 127.306 117.227C127.116 117.452 126.963 117.733 126.855 118.066C126.742 118.398 126.69 118.777 126.69 119.211V122.92H124.966V115.129L124.961 115.119Z" fill="#7B6A54"/>
<path d="M136.828 121.181C136.828 121.391 136.854 121.544 136.91 121.631C136.967 121.723 137.074 121.769 137.233 121.769H137.413C137.485 121.769 137.562 121.759 137.654 121.739V122.931C137.593 122.951 137.516 122.971 137.418 122.997C137.321 123.023 137.223 123.043 137.126 123.064C137.023 123.084 136.925 123.099 136.823 123.11C136.72 123.12 136.638 123.125 136.566 123.125C136.212 123.125 135.919 123.053 135.688 122.915C135.457 122.777 135.303 122.526 135.237 122.179C134.893 122.511 134.472 122.752 133.974 122.9C133.476 123.048 132.994 123.125 132.532 123.125C132.178 123.125 131.844 123.079 131.521 122.982C131.197 122.885 130.915 122.746 130.668 122.557C130.422 122.368 130.227 122.138 130.078 121.851C129.929 121.565 129.857 121.232 129.857 120.848C129.857 120.368 129.945 119.974 130.124 119.672C130.304 119.37 130.535 119.135 130.822 118.966C131.11 118.797 131.433 118.674 131.787 118.598C132.142 118.521 132.506 118.465 132.87 118.424C133.184 118.362 133.481 118.321 133.764 118.296C134.046 118.27 134.297 118.229 134.513 118.168C134.729 118.106 134.898 118.014 135.026 117.892C135.155 117.764 135.216 117.58 135.216 117.329C135.216 117.109 135.165 116.925 135.057 116.787C134.949 116.643 134.821 116.536 134.662 116.464C134.503 116.393 134.333 116.336 134.138 116.316C133.948 116.29 133.764 116.28 133.594 116.28C133.112 116.28 132.711 116.382 132.398 116.582C132.085 116.781 131.911 117.094 131.87 117.518H130.145C130.176 117.017 130.294 116.597 130.509 116.27C130.72 115.937 130.992 115.671 131.32 115.472C131.649 115.272 132.018 115.129 132.434 115.052C132.845 114.971 133.271 114.93 133.702 114.93C134.087 114.93 134.462 114.971 134.836 115.052C135.211 115.134 135.545 115.262 135.842 115.446C136.14 115.63 136.381 115.861 136.561 116.147C136.741 116.434 136.833 116.781 136.833 117.196V121.201L136.828 121.181ZM135.103 119.012C134.842 119.181 134.518 119.288 134.138 119.319C133.753 119.355 133.374 119.406 132.989 119.477C132.809 119.508 132.629 119.549 132.46 119.605C132.29 119.662 132.136 119.738 132.008 119.83C131.875 119.928 131.772 120.05 131.7 120.209C131.628 120.368 131.587 120.552 131.587 120.772C131.587 120.961 131.644 121.125 131.752 121.253C131.864 121.386 131.998 121.488 132.152 121.56C132.306 121.636 132.48 121.687 132.665 121.718C132.85 121.749 133.019 121.764 133.173 121.764C133.363 121.764 133.574 121.739 133.794 121.687C134.015 121.636 134.226 121.549 134.421 121.432C134.616 121.309 134.78 121.155 134.913 120.971C135.042 120.787 135.108 120.557 135.108 120.286V119.007L135.103 119.012Z" fill="#7B6A54"/>
<path d="M145.913 122.506C145.913 123.683 145.585 124.557 144.923 125.135C144.26 125.714 143.311 126 142.074 126C141.679 126 141.283 125.959 140.888 125.877C140.493 125.795 140.128 125.662 139.8 125.473C139.471 125.284 139.199 125.033 138.974 124.721C138.753 124.409 138.619 124.025 138.578 123.575H140.303C140.354 123.816 140.436 124.01 140.56 124.163C140.683 124.312 140.826 124.429 140.991 124.516C141.155 124.603 141.34 124.66 141.545 124.68C141.75 124.701 141.961 124.716 142.182 124.716C142.88 124.716 143.388 124.547 143.711 124.204C144.035 123.862 144.194 123.371 144.194 122.726V121.534H144.163C143.922 121.964 143.588 122.301 143.172 122.542C142.751 122.782 142.305 122.905 141.817 122.905C141.191 122.905 140.662 122.798 140.221 122.583C139.785 122.368 139.42 122.071 139.133 121.693C138.845 121.314 138.635 120.879 138.506 120.388C138.373 119.897 138.311 119.37 138.311 118.807C138.311 118.286 138.393 117.789 138.553 117.314C138.712 116.843 138.948 116.429 139.251 116.07C139.554 115.712 139.923 115.431 140.365 115.221C140.801 115.011 141.299 114.904 141.853 114.904C142.346 114.904 142.798 115.006 143.213 115.211C143.629 115.416 143.942 115.743 144.168 116.183H144.199V115.114H145.923V122.496L145.913 122.506ZM142.089 121.554C142.474 121.554 142.798 121.478 143.064 121.319C143.331 121.166 143.547 120.956 143.716 120.7C143.886 120.444 144.004 120.153 144.081 119.825C144.158 119.498 144.194 119.171 144.194 118.838C144.194 118.505 144.153 118.183 144.07 117.876C143.988 117.564 143.865 117.288 143.701 117.048C143.537 116.807 143.316 116.618 143.049 116.475C142.782 116.336 142.464 116.265 142.089 116.265C141.714 116.265 141.381 116.347 141.124 116.505C140.862 116.664 140.652 116.874 140.488 117.129C140.329 117.385 140.211 117.677 140.139 118.004C140.067 118.332 140.031 118.654 140.031 118.976C140.031 119.298 140.072 119.61 140.154 119.917C140.236 120.224 140.359 120.495 140.524 120.741C140.688 120.981 140.903 121.176 141.16 121.329C141.417 121.483 141.725 121.554 142.089 121.554Z" fill="#7B6A54"/>
<path d="M154.198 121.181C154.198 121.391 154.223 121.544 154.28 121.631C154.336 121.723 154.444 121.769 154.603 121.769H154.783C154.855 121.769 154.932 121.759 155.024 121.739V122.931C154.963 122.951 154.886 122.971 154.788 122.997C154.69 123.023 154.593 123.043 154.495 123.064C154.393 123.084 154.295 123.099 154.193 123.11C154.09 123.12 154.008 123.125 153.936 123.125C153.582 123.125 153.289 123.053 153.058 122.915C152.827 122.777 152.673 122.526 152.607 122.179C152.263 122.511 151.842 122.752 151.344 122.9C150.846 123.048 150.363 123.125 149.901 123.125C149.547 123.125 149.214 123.079 148.89 122.982C148.567 122.885 148.285 122.746 148.038 122.557C147.792 122.368 147.597 122.138 147.448 121.851C147.299 121.565 147.227 121.232 147.227 120.848C147.227 120.368 147.314 119.974 147.494 119.672C147.674 119.37 147.905 119.135 148.192 118.966C148.48 118.797 148.803 118.674 149.157 118.598C149.511 118.521 149.876 118.465 150.24 118.424C150.553 118.362 150.851 118.321 151.133 118.296C151.416 118.27 151.667 118.229 151.883 118.168C152.098 118.106 152.268 118.014 152.396 117.892C152.524 117.764 152.586 117.58 152.586 117.329C152.586 117.109 152.535 116.925 152.427 116.787C152.319 116.643 152.191 116.536 152.032 116.464C151.873 116.393 151.703 116.336 151.508 116.316C151.318 116.29 151.133 116.28 150.964 116.28C150.481 116.28 150.081 116.382 149.768 116.582C149.455 116.781 149.28 117.094 149.239 117.518H147.515C147.545 117.017 147.664 116.597 147.879 116.27C148.09 115.937 148.362 115.671 148.69 115.472C149.019 115.272 149.388 115.129 149.804 115.052C150.215 114.971 150.641 114.93 151.072 114.93C151.457 114.93 151.831 114.971 152.206 115.052C152.581 115.134 152.914 115.262 153.212 115.446C153.51 115.63 153.751 115.861 153.931 116.147C154.11 116.434 154.203 116.781 154.203 117.196V121.201L154.198 121.181ZM152.473 119.012C152.211 119.181 151.888 119.288 151.508 119.319C151.123 119.355 150.743 119.406 150.358 119.477C150.179 119.508 149.999 119.549 149.83 119.605C149.66 119.662 149.506 119.738 149.378 119.83C149.244 119.928 149.142 120.05 149.07 120.209C148.998 120.368 148.957 120.552 148.957 120.772C148.957 120.961 149.013 121.125 149.121 121.253C149.234 121.386 149.368 121.488 149.522 121.56C149.676 121.636 149.85 121.687 150.035 121.718C150.22 121.749 150.389 121.764 150.543 121.764C150.733 121.764 150.943 121.739 151.164 121.687C151.385 121.636 151.595 121.549 151.79 121.432C151.985 121.309 152.15 121.155 152.283 120.971C152.411 120.787 152.478 120.557 152.478 120.286V119.007L152.473 119.012Z" fill="#7B6A54"/>
<path d="M155.27 115.119H156.569V112.781H158.294V115.119H159.854V116.398H158.294V120.557C158.294 120.736 158.304 120.895 158.314 121.022C158.325 121.15 158.366 121.263 158.422 121.355C158.479 121.447 158.561 121.514 158.674 121.56C158.787 121.606 158.935 121.626 159.125 121.626C159.243 121.626 159.367 121.626 159.49 121.621C159.608 121.621 159.731 121.6 159.854 121.57V122.895C159.659 122.915 159.474 122.936 159.295 122.956C159.115 122.977 158.925 122.987 158.735 122.987C158.284 122.987 157.914 122.946 157.637 122.859C157.36 122.772 157.144 122.649 156.985 122.48C156.831 122.317 156.723 122.107 156.667 121.856C156.61 121.606 156.579 121.319 156.569 120.997V116.403H155.27V115.124V115.119Z" fill="#7B6A54"/>
<path d="M161.137 112.152H162.862V113.779H161.137V112.152ZM161.137 115.119H162.862V122.91H161.137V115.119Z" fill="#7B6A54"/>
<path d="M169.181 112.152H171.07V117.048L175.879 112.152H178.209L173.898 116.444L178.507 122.91H176.151L172.615 117.774L171.075 119.298V122.915H169.186V112.157L169.181 112.152Z" fill="#7B6A54"/>
<path d="M179.344 112.152H181.068V113.779H179.344V112.152ZM179.344 115.119H181.068V122.91H179.344V115.119Z" fill="#7B6A54"/>
<path d="M187.31 112.152H189.307L194.234 120.076H194.265V112.152H196.062V122.91H194.065L189.153 115.001H189.107V122.91H187.31V112.152Z" fill="#7B6A54"/>
<path d="M204.608 121.181C204.608 121.391 204.634 121.544 204.69 121.631C204.747 121.718 204.854 121.769 205.014 121.769H205.193C205.265 121.769 205.342 121.759 205.434 121.739V122.931C205.373 122.951 205.296 122.971 205.198 122.997C205.101 123.023 205.003 123.043 204.906 123.064C204.803 123.084 204.706 123.099 204.603 123.11C204.5 123.12 204.418 123.125 204.346 123.125C203.992 123.125 203.699 123.053 203.469 122.915C203.238 122.777 203.084 122.526 203.017 122.179C202.673 122.511 202.252 122.752 201.754 122.9C201.256 123.048 200.774 123.125 200.312 123.125C199.958 123.125 199.619 123.079 199.301 122.982C198.977 122.885 198.695 122.746 198.449 122.557C198.202 122.373 198.007 122.138 197.858 121.851C197.709 121.565 197.638 121.232 197.638 120.848C197.638 120.368 197.725 119.974 197.904 119.672C198.084 119.37 198.31 119.135 198.603 118.966C198.89 118.797 199.213 118.674 199.567 118.598C199.922 118.521 200.286 118.465 200.651 118.424C200.964 118.362 201.261 118.321 201.544 118.296C201.826 118.27 202.077 118.229 202.293 118.168C202.509 118.106 202.683 118.014 202.806 117.892C202.935 117.764 202.996 117.58 202.996 117.329C202.996 117.109 202.945 116.925 202.837 116.787C202.729 116.643 202.601 116.536 202.442 116.464C202.288 116.388 202.113 116.336 201.918 116.316C201.723 116.295 201.544 116.28 201.374 116.28C200.892 116.28 200.491 116.382 200.178 116.582C199.865 116.781 199.691 117.094 199.65 117.518H197.925C197.956 117.017 198.074 116.597 198.289 116.27C198.5 115.937 198.772 115.671 199.1 115.472C199.429 115.272 199.798 115.129 200.214 115.052C200.625 114.971 201.051 114.93 201.482 114.93C201.867 114.93 202.242 114.971 202.616 115.052C202.991 115.134 203.325 115.262 203.623 115.446C203.92 115.625 204.156 115.861 204.341 116.147C204.521 116.434 204.613 116.781 204.613 117.196V121.201L204.608 121.181ZM202.883 119.012C202.622 119.181 202.298 119.288 201.913 119.319C201.528 119.355 201.148 119.406 200.763 119.477C200.584 119.508 200.404 119.549 200.235 119.605C200.065 119.662 199.911 119.738 199.783 119.83C199.655 119.923 199.547 120.05 199.475 120.209C199.403 120.368 199.362 120.552 199.362 120.772C199.362 120.961 199.419 121.125 199.526 121.253C199.639 121.386 199.773 121.488 199.927 121.56C200.081 121.636 200.255 121.687 200.44 121.718C200.625 121.749 200.794 121.764 200.948 121.764C201.138 121.764 201.349 121.739 201.569 121.687C201.79 121.636 202.001 121.549 202.196 121.432C202.391 121.314 202.555 121.155 202.688 120.971C202.817 120.787 202.883 120.557 202.883 120.286V119.007V119.012Z" fill="#7B6A54"/>
<path d="M205.604 115.119H207.493L209.536 120.935H209.566L211.548 115.119H213.344L210.306 123.33C210.162 123.683 210.028 124.015 209.89 124.337C209.751 124.66 209.587 124.941 209.392 125.192C209.197 125.437 208.95 125.632 208.658 125.78C208.365 125.923 207.991 126 207.539 126C207.133 126 206.738 125.969 206.343 125.908V124.46C206.487 124.481 206.62 124.501 206.754 124.527C206.882 124.552 207.02 124.562 207.159 124.562C207.359 124.562 207.529 124.537 207.657 124.486C207.785 124.435 207.898 124.363 207.98 124.266C208.068 124.169 208.139 124.056 208.201 123.928C208.263 123.8 208.314 123.647 208.365 123.478L208.56 122.874L205.599 115.114L205.604 115.119Z" fill="#7B6A54"/>
<path d="M214.361 112.152H216.085V113.779H214.361V112.152ZM214.361 115.119H216.085V122.91H214.361V115.119Z" fill="#7B6A54"/>
<path d="M222.404 112.152H227.167C227.932 112.152 228.558 112.264 229.041 112.484C229.523 112.704 229.898 112.981 230.16 113.313C230.421 113.646 230.601 114.009 230.699 114.398C230.796 114.791 230.842 115.15 230.842 115.482C230.842 115.815 230.796 116.173 230.699 116.562C230.601 116.95 230.421 117.308 230.16 117.641C229.898 117.973 229.523 118.245 229.041 118.465C228.558 118.685 227.932 118.787 227.167 118.787H224.293V122.915H222.404V112.157V112.152ZM224.293 117.247H227.059C227.27 117.247 227.485 117.216 227.711 117.155C227.932 117.094 228.137 116.996 228.322 116.863C228.507 116.725 228.661 116.546 228.774 116.321C228.892 116.096 228.948 115.81 228.948 115.467C228.948 115.124 228.897 114.822 228.799 114.592C228.697 114.362 228.563 114.178 228.394 114.039C228.225 113.906 228.024 113.809 227.804 113.763C227.583 113.712 227.347 113.686 227.095 113.686H224.298V117.242L224.293 117.247Z" fill="#7B6A54"/>
<path d="M233.588 119.462C233.588 119.764 233.629 120.056 233.717 120.337C233.804 120.618 233.932 120.864 234.102 121.074C234.271 121.283 234.492 121.452 234.754 121.58C235.015 121.708 235.328 121.769 235.693 121.769C236.196 121.769 236.601 121.662 236.909 121.447C237.217 121.232 237.448 120.905 237.597 120.475H239.229C239.137 120.895 238.983 121.273 238.762 121.606C238.542 121.938 238.275 122.214 237.962 122.439C237.649 122.665 237.3 122.838 236.909 122.951C236.519 123.064 236.114 123.125 235.693 123.125C235.077 123.125 234.533 123.023 234.061 122.823C233.588 122.624 233.188 122.342 232.86 121.979C232.531 121.616 232.285 121.186 232.12 120.685C231.956 120.183 231.869 119.631 231.869 119.027C231.869 118.475 231.956 117.948 232.136 117.452C232.31 116.955 232.562 116.515 232.89 116.142C233.219 115.763 233.614 115.467 234.076 115.247C234.538 115.027 235.062 114.914 235.647 114.914C236.263 114.914 236.812 115.042 237.305 115.298C237.792 115.554 238.198 115.891 238.521 116.316C238.845 116.735 239.076 117.221 239.224 117.769C239.368 118.316 239.409 118.884 239.337 119.462H233.594H233.588ZM237.613 118.332C237.592 118.06 237.536 117.8 237.438 117.549C237.341 117.298 237.212 117.078 237.043 116.894C236.879 116.71 236.673 116.556 236.437 116.444C236.201 116.326 235.934 116.27 235.642 116.27C235.349 116.27 235.067 116.321 234.82 116.428C234.574 116.536 234.363 116.679 234.184 116.863C234.009 117.048 233.866 117.267 233.758 117.518C233.65 117.769 233.594 118.04 233.583 118.332H237.607H237.613Z" fill="#7B6A54"/>
<path d="M240.651 112.152H242.376V116.147H242.407C242.617 115.794 242.935 115.503 243.351 115.267C243.767 115.032 244.234 114.914 244.747 114.914C245.605 114.914 246.277 115.134 246.775 115.579C247.268 116.019 247.514 116.684 247.514 117.569V122.92H245.789V118.025C245.769 117.411 245.64 116.966 245.394 116.689C245.148 116.413 244.773 116.275 244.26 116.275C243.967 116.275 243.705 116.326 243.474 116.434C243.243 116.541 243.048 116.684 242.884 116.868C242.725 117.053 242.597 117.273 242.504 117.523C242.412 117.774 242.366 118.04 242.366 118.321V122.915H240.641V112.157L240.651 112.152Z" fill="#7B6A54"/>
<path d="M254.608 117.728C254.536 117.247 254.341 116.884 254.028 116.633C253.709 116.388 253.309 116.265 252.827 116.265C252.606 116.265 252.37 116.301 252.118 116.377C251.867 116.454 251.636 116.592 251.42 116.802C251.21 117.007 251.03 117.293 250.891 117.661C250.748 118.03 250.681 118.511 250.681 119.099C250.681 119.421 250.717 119.743 250.794 120.061C250.871 120.383 250.989 120.669 251.158 120.92C251.323 121.171 251.538 121.375 251.8 121.529C252.062 121.682 252.38 121.764 252.755 121.764C253.258 121.764 253.673 121.611 254.002 121.299C254.331 120.987 254.536 120.552 254.613 119.989H256.337C256.178 121.002 255.788 121.78 255.183 122.317C254.572 122.854 253.766 123.125 252.755 123.125C252.139 123.125 251.6 123.023 251.128 122.818C250.655 122.613 250.265 122.332 249.942 121.974C249.618 121.616 249.377 121.191 249.208 120.7C249.044 120.209 248.956 119.677 248.956 119.104C248.956 118.531 249.038 117.973 249.198 117.462C249.357 116.95 249.603 116.505 249.921 116.127C250.245 115.748 250.645 115.451 251.122 115.237C251.6 115.022 252.164 114.914 252.806 114.914C253.258 114.914 253.689 114.971 254.1 115.088C254.51 115.206 254.869 115.38 255.188 115.61C255.506 115.84 255.763 116.132 255.968 116.485C256.168 116.838 256.291 117.252 256.332 117.738H254.608V117.728Z" fill="#7B6A54"/>
<path d="M257.739 112.152H259.463V116.147H259.494C259.705 115.794 260.023 115.503 260.439 115.267C260.854 115.032 261.322 114.914 261.835 114.914C262.692 114.914 263.364 115.134 263.862 115.579C264.355 116.019 264.601 116.684 264.601 117.569V122.92H262.877V118.025C262.856 117.411 262.728 116.966 262.482 116.689C262.235 116.413 261.86 116.275 261.347 116.275C261.055 116.275 260.793 116.326 260.562 116.434C260.331 116.541 260.136 116.684 259.972 116.868C259.812 117.053 259.684 117.273 259.592 117.523C259.499 117.774 259.453 118.04 259.453 118.321V122.915H257.728V112.157L257.739 112.152Z" fill="#7B6A54"/>
<path d="M272.963 121.181C272.963 121.391 272.989 121.544 273.045 121.631C273.102 121.718 273.209 121.769 273.368 121.769H273.548C273.62 121.769 273.697 121.759 273.789 121.739V122.931C273.728 122.951 273.651 122.971 273.553 122.997C273.456 123.023 273.358 123.043 273.261 123.064C273.158 123.084 273.061 123.099 272.958 123.11C272.855 123.12 272.773 123.125 272.701 123.125C272.347 123.125 272.054 123.053 271.823 122.915C271.592 122.777 271.438 122.526 271.372 122.179C271.028 122.511 270.607 122.752 270.109 122.9C269.611 123.048 269.129 123.125 268.667 123.125C268.313 123.125 267.974 123.079 267.656 122.982C267.332 122.885 267.05 122.746 266.803 122.557C266.557 122.373 266.362 122.138 266.213 121.851C266.064 121.565 265.992 121.232 265.992 120.848C265.992 120.368 266.08 119.974 266.259 119.672C266.439 119.37 266.665 119.135 266.957 118.966C267.245 118.797 267.568 118.674 267.922 118.598C268.277 118.521 268.641 118.465 269.006 118.424C269.319 118.362 269.616 118.321 269.899 118.296C270.181 118.27 270.432 118.229 270.648 118.168C270.864 118.106 271.038 118.014 271.161 117.892C271.29 117.764 271.351 117.58 271.351 117.329C271.351 117.109 271.3 116.925 271.192 116.787C271.084 116.643 270.956 116.536 270.797 116.464C270.643 116.388 270.468 116.336 270.273 116.316C270.078 116.295 269.899 116.28 269.729 116.28C269.247 116.28 268.846 116.382 268.533 116.582C268.22 116.781 268.046 117.094 268.005 117.518H266.28C266.311 117.017 266.429 116.597 266.644 116.27C266.855 115.937 267.127 115.671 267.455 115.472C267.784 115.272 268.153 115.129 268.569 115.052C268.98 114.971 269.406 114.93 269.837 114.93C270.222 114.93 270.597 114.971 270.971 115.052C271.346 115.134 271.68 115.262 271.977 115.446C272.275 115.625 272.511 115.861 272.696 116.147C272.876 116.434 272.968 116.781 272.968 117.196V121.201L272.963 121.181ZM271.238 119.012C270.977 119.181 270.653 119.288 270.268 119.319C269.883 119.355 269.503 119.406 269.118 119.477C268.939 119.508 268.759 119.549 268.59 119.605C268.42 119.662 268.266 119.738 268.138 119.83C268.01 119.923 267.902 120.05 267.83 120.209C267.758 120.368 267.717 120.552 267.717 120.772C267.717 120.961 267.774 121.125 267.881 121.253C267.994 121.386 268.128 121.488 268.282 121.56C268.436 121.636 268.61 121.687 268.795 121.718C268.98 121.749 269.149 121.764 269.303 121.764C269.493 121.764 269.704 121.739 269.924 121.687C270.145 121.636 270.355 121.549 270.551 121.432C270.746 121.314 270.91 121.155 271.043 120.971C271.172 120.787 271.238 120.557 271.238 120.286V119.007V119.012Z" fill="#7B6A54"/>
<path d="M281.371 121.181C281.371 121.391 281.396 121.544 281.453 121.631C281.509 121.718 281.617 121.769 281.776 121.769H281.956C282.028 121.769 282.105 121.759 282.197 121.739V122.931C282.135 122.951 282.058 122.971 281.961 122.997C281.863 123.023 281.766 123.043 281.668 123.064C281.566 123.084 281.468 123.099 281.366 123.11C281.263 123.12 281.181 123.125 281.109 123.125C280.755 123.125 280.462 123.053 280.231 122.915C280 122.777 279.846 122.526 279.779 122.179C279.436 122.511 279.015 122.752 278.517 122.9C278.019 123.048 277.536 123.125 277.074 123.125C276.72 123.125 276.381 123.079 276.063 122.982C275.74 122.885 275.458 122.746 275.211 122.557C274.965 122.373 274.77 122.138 274.621 121.851C274.472 121.565 274.4 121.232 274.4 120.848C274.4 120.368 274.487 119.974 274.667 119.672C274.847 119.37 275.073 119.135 275.365 118.966C275.653 118.797 275.976 118.674 276.33 118.598C276.684 118.521 277.049 118.465 277.413 118.424C277.726 118.362 278.024 118.321 278.306 118.296C278.589 118.27 278.84 118.229 279.056 118.168C279.271 118.106 279.446 118.014 279.569 117.892C279.697 117.764 279.759 117.58 279.759 117.329C279.759 117.109 279.708 116.925 279.6 116.787C279.492 116.643 279.364 116.536 279.205 116.464C279.051 116.388 278.876 116.336 278.681 116.316C278.486 116.295 278.306 116.28 278.137 116.28C277.654 116.28 277.254 116.382 276.941 116.582C276.628 116.781 276.453 117.094 276.412 117.518H274.688C274.718 117.017 274.836 116.597 275.052 116.27C275.262 115.937 275.535 115.671 275.863 115.472C276.192 115.272 276.561 115.129 276.977 115.052C277.388 114.971 277.814 114.93 278.245 114.93C278.63 114.93 279.004 114.971 279.379 115.052C279.754 115.134 280.087 115.262 280.385 115.446C280.683 115.625 280.919 115.861 281.104 116.147C281.283 116.434 281.376 116.781 281.376 117.196V121.201L281.371 121.181ZM279.646 119.012C279.384 119.181 279.061 119.288 278.676 119.319C278.291 119.355 277.911 119.406 277.526 119.477C277.346 119.508 277.167 119.549 276.997 119.605C276.828 119.662 276.674 119.738 276.546 119.83C276.417 119.923 276.31 120.05 276.238 120.209C276.166 120.368 276.125 120.552 276.125 120.772C276.125 120.961 276.181 121.125 276.289 121.253C276.402 121.386 276.535 121.488 276.689 121.56C276.843 121.636 277.018 121.687 277.203 121.718C277.388 121.749 277.557 121.764 277.711 121.764C277.901 121.764 278.111 121.739 278.332 121.687C278.553 121.636 278.763 121.549 278.958 121.432C279.153 121.314 279.317 121.155 279.451 120.971C279.579 120.787 279.646 120.557 279.646 120.286V119.007V119.012Z" fill="#7B6A54"/>
<path d="M283.229 115.119H284.861V116.265L284.892 116.295C285.154 115.866 285.498 115.523 285.918 115.277C286.339 115.032 286.812 114.909 287.325 114.909C288.182 114.909 288.854 115.129 289.352 115.574C289.845 116.014 290.091 116.679 290.091 117.564V122.915H288.367V118.019C288.346 117.406 288.218 116.961 287.972 116.684C287.725 116.408 287.35 116.27 286.837 116.27C286.545 116.27 286.283 116.321 286.052 116.428C285.821 116.536 285.626 116.679 285.462 116.863C285.302 117.048 285.174 117.267 285.082 117.518C284.989 117.769 284.943 118.035 284.943 118.316V122.91H283.219V115.119H283.229Z" fill="#7B6A54"/>
</g>
<defs>
<clipPath id="clip0_1_3">
<rect width="291" height="126" fill="white"/>
</clipPath>
</defs>
</svg>
