<svg xmlns="http://www.w3.org/2000/svg" height="800" width="1200" viewBox="-41.81838 -17.688125 362.42596 106.12875"><defs><clipPath id="a"><path d="M27 27h1353.599v939.6H27z"/></clipPath></defs><g clip-path="url(#a)" transform="matrix(1.25 0 0 -1.25 -108.5207 230.8673)" fill="#00f"><path d="M152.1204 128.0923h-20.312l-12.333 21.507h20.309zm-32.7178 56.6015l10.185-17.516-22.498-39.086h-20.273zm45.3213-27.6904l-3.423 6.558-3.591-6.558zm1.413-2.74h-9.876l-2.568-4.664h-3.763l11.438 20.499 11.022-20.499h-3.813zm13.9776 5.402l-6.367 9.191h3.969l4.419-6.505 4.621 6.505h4l-6.645-9.191 6.985-10.066h-3.907l-5.108 7.38-5.28-7.38h-3.943zm17.5879-10.0664h-3.479v19.258h3.478zm17.3975 16.424l-2.841-1.409c-.53.765-1.026 1.264-1.513 1.499-.498.268-1.136.399-1.928.399-.96 0-1.758-.23-2.41-.696-.635-.444-.954-1.005-.953-1.684 0-.953.841-1.705 2.509-2.274l2.306-.795c1.874-.614 3.243-1.401 4.12-2.304.88-.918 1.298-2.031 1.298-3.368 0-1.765-.703-3.241-2.128-4.379-1.417-1.177-3.201-1.758-5.314-1.758-2.005 0-3.664.492-4.962 1.495-1.298 1.005-2.089 2.393-2.416 4.18l3.529.652c.168-1.139.435-1.905.846-2.343.711-.826 1.773-1.249 3.142-1.249 1.095 0 1.989.294 2.704.916.724.601 1.077 1.376 1.077 2.304 0 .372-.054.72-.204 1.02-.1.326-.298.603-.559.867-.254.248-.613.515-1.029.738-.416.235-.914.434-1.492.663l-2.227.771c-3.178 1.11-4.742 2.738-4.742 4.888 0 1.45.666 2.644 1.986 3.615 1.318.988 2.97 1.491 4.945 1.489 2.658 0 4.758-1.08 6.256-3.237m17.7343-13.6817h2.157c1.589 0 2.747.253 3.486.76.772.565 1.17 1.27 1.17 2.117 0 .838-.398 1.539-1.137 2.12-.731.526-2.025.824-3.911.824h-1.765zm0 8.25h1.104c1.292 0 2.251.235 2.848.715.596.481.906 1.183.906 2.103 0 .92-.31 1.612-.924 2.062-.628.485-1.519.721-2.7.721h-1.234zm-3.482-10.992v19.258h3.482c1.545 0 2.775-.086 3.694-.291.925-.193 1.705-.546 2.339-.999.655-.511 1.155-1.116 1.542-1.864.4-.719.594-1.477.594-2.232 0-1.379-.643-2.545-1.91-3.504 1.238-.347 2.194-.959 2.903-1.834.727-.861 1.081-1.857 1.081-3.028 0-1.492-.634-2.764-1.917-3.811-.763-.642-1.625-1.093-2.582-1.331-1.051-.247-2.359-.364-3.942-.364zm28.7154 7.4041l-3.436 6.558-3.606-6.558zm1.417-2.74h-9.89l-2.571-4.664h-3.765l11.421 20.499 11.041-20.499h-3.832zm8.5186-4.6644v20.597l16.837-14.725v13.386h3.488v-20.433l-16.841 14.675v-13.5zm28.1338 11.5695l8.998 7.688h4.641l-10.435-8.725 10.507-10.532h-4.671l-8.314 8.571-.726-.602v-7.969h-3.493v19.257h3.493z" fill="maroon"/></g></svg>