<svg width="390" height="99" viewBox="0 0 390 99" fill="none" xmlns="http://www.w3.org/2000/svg">
<path fill-rule="evenodd" clip-rule="evenodd" d="M0.000244141 68.085H21.5872V54.468H0.000244141V68.085Z" fill="#F8C63F"/>
<path fill-rule="evenodd" clip-rule="evenodd" d="M70.3284 37.4471H91.9154V23.8301H70.3284V37.4471Z" fill="#F8C63F"/>
<path fill-rule="evenodd" clip-rule="evenodd" d="M37.447 37.447H54.468V52.226H68.085V0H54.468V23.83H37.447V0H23.83V23.83H0V37.447H23.83H37.447Z" fill="#F8C63F"/>
<path fill-rule="evenodd" clip-rule="evenodd" d="M37.4473 85.1071H54.4683V68.0861H37.4473V85.1071ZM54.4683 54.4681H37.4473V39.6891H23.8303V85.1071V86.8091L35.7453 98.7241H56.1703L68.0853 86.8091V85.1071V68.0851H91.9153V54.4681H68.0853H54.4683Z" fill="#F8C63F"/>
<path fill-rule="evenodd" clip-rule="evenodd" d="M182.023 50.6478L168.595 23.6638H163.518V76.2988H172.051L172.052 47.0628L185.564 76.2988H190.568V23.6638H182.023V50.6478Z" fill="#2A3238"/>
<path fill-rule="evenodd" clip-rule="evenodd" d="M141.069 23.6638V68.0508H131.087V23.6638H122.553V68.7718L130.08 76.2998H142.076L149.603 68.7718V23.6638H141.069Z" fill="#2A3238"/>
<path fill-rule="evenodd" clip-rule="evenodd" d="M225.819 31.9122V23.6642H218.707H210.173H203.06V31.9122H210.173V68.0512H203.06V76.2992H225.819V68.0512H218.707V31.9122H225.819Z" fill="#2A3238"/>
<path fill-rule="evenodd" clip-rule="evenodd" d="M266.093 23.6638H255.831H247.297H237.035V31.9118H247.297V76.2988H255.831V31.9118H266.093V23.6638Z" fill="#2A3238"/>
<path fill-rule="evenodd" clip-rule="evenodd" d="M297.564 23.6638L290.115 46.6908L282.667 23.6638H273.847L285.848 56.8508V76.2988H294.382V56.8508L306.383 23.6638H297.564Z" fill="#2A3238"/>
<path fill-rule="evenodd" clip-rule="evenodd" d="M322.117 32.8233H323.006C324.251 35.3723 325.496 36.4193 327.393 36.4193C328.915 36.4193 329.962 35.5903 329.962 34.0483C329.962 32.3093 328.5 31.8553 326.445 31.3023C324.37 30.7483 322.295 30.0773 322.295 27.5483C322.295 25.5123 323.836 23.8723 326.247 23.8723C327.532 23.8723 328.796 24.4253 329.547 25.2953L329.942 23.9323H330.91V28.1803H330.021C329.013 25.6703 327.65 24.8013 326.149 24.8013C324.844 24.8013 323.836 25.6113 323.836 27.0543C323.836 28.8723 325.397 29.2673 327.235 29.7603C329.467 30.3333 331.503 30.9073 331.503 33.4363C331.503 35.6883 329.764 37.3683 327.354 37.3683C325.753 37.3683 324.469 36.7753 323.521 35.7673L323.086 37.3083H322.117V32.8233Z" fill="#2A3238"/>
<path fill-rule="evenodd" clip-rule="evenodd" d="M344.821 28.0222C346.303 28.0222 347.133 29.0102 347.133 30.8472V36.0242H348.615V37.0522H344.347V36.0242H345.611V31.5192C345.611 30.6702 345.492 30.0372 345.117 29.6422C344.86 29.3852 344.505 29.2872 344.05 29.2872C342.805 29.2872 341.58 30.7292 341.58 32.1522V36.0242H342.844V37.0522H338.794V36.0242H340.039V31.5192C340.039 30.6702 339.94 30.0372 339.565 29.6422C339.289 29.3852 338.953 29.2872 338.498 29.2872C337.234 29.2872 336.028 30.7292 336.028 32.1522V36.0242H337.273V37.0522H333.005V36.0242H334.487V29.1882H333.005V28.1602H335.989V30.4522C337.036 28.6352 338.162 28.0222 339.248 28.0222C340.612 28.0222 341.422 28.7732 341.541 30.3732C342.607 28.6152 343.714 28.0222 344.821 28.0222Z" fill="#2A3238"/>
<path fill-rule="evenodd" clip-rule="evenodd" d="M355.214 34.2462V32.4882C355.036 32.5472 354.72 32.6062 354.245 32.6852C352.23 33.0012 351.5 33.4162 351.5 34.6022C351.5 35.5902 352.013 36.1432 353.041 36.1432C354.088 36.1432 355.214 35.2742 355.214 34.2462ZM349.82 34.8782C349.82 34.3052 350.018 33.7322 350.432 33.2982C351.124 32.6062 352.073 32.3492 353.811 32.0722C355.016 31.8752 355.214 31.8352 355.214 31.4992V30.6302C355.214 29.3262 354.562 28.8522 353.376 28.8522C352.685 28.8522 352.092 29.0302 351.677 29.3662C352.013 29.5432 352.211 29.8602 352.211 30.2742C352.211 30.8482 351.815 31.2822 351.183 31.2822C350.551 31.2822 350.136 30.8282 350.136 30.2152C350.136 28.9312 351.796 28.0222 353.633 28.0222C355.669 28.0222 356.755 28.8912 356.755 30.6892V35.3332C356.755 35.9452 356.953 36.1232 357.348 36.1232C357.683 36.1232 357.921 35.8472 358.138 35.3332L358.731 35.6692C358.276 36.6762 357.782 37.1512 356.893 37.1512C356.083 37.1512 355.412 36.6762 355.391 35.5112H355.333C354.74 36.5182 353.574 37.1902 352.369 37.1902C350.748 37.1902 349.82 36.2612 349.82 34.8782Z" fill="#2A3238"/>
<path fill-rule="evenodd" clip-rule="evenodd" d="M358.809 36.0245H360.489V24.5445H358.809V23.4775H362.03V36.0245H363.69V37.0525H358.809V36.0245Z" fill="#2A3238"/>
<path fill-rule="evenodd" clip-rule="evenodd" d="M364.42 36.0245H366.1V24.5445H364.42V23.4775H367.641V36.0245H369.301V37.0525H364.42V36.0245Z" fill="#2A3238"/>
<path fill-rule="evenodd" clip-rule="evenodd" d="M321.663 55.7831H323.857V44.9351H321.663V43.9281H332.709V48.0371H331.938C331.345 45.3701 331.029 44.9351 329.784 44.9351H325.516V49.9741H327.334C328.48 49.9741 328.678 49.7561 328.935 47.9591H329.745V52.9971H328.935C328.717 51.1201 328.48 50.8631 327.334 50.8631H325.516V55.7831H327.927V56.8111H321.663V55.7831Z" fill="#2A3238"/>
<path fill-rule="evenodd" clip-rule="evenodd" d="M335.099 44.7971C335.099 44.1451 335.554 43.6511 336.225 43.6511C336.838 43.6511 337.312 44.1051 337.312 44.7771C337.312 45.4491 336.838 45.9031 336.225 45.9031C335.573 45.9031 335.099 45.4891 335.099 44.7971ZM333.893 55.7831H335.573V48.9461H333.893V47.9191H337.094V55.7831H338.774V56.8101H333.893V55.7831Z" fill="#2A3238"/>
<path fill-rule="evenodd" clip-rule="evenodd" d="M339.782 55.7831H341.264V48.9461H339.782V47.9191H342.766V50.2111C343.813 48.3931 344.978 47.7811 346.125 47.7811C347.626 47.7811 348.535 48.7691 348.535 50.5871V55.7831H350.017V56.8111H345.65V55.7831H347.014V51.2781C347.014 50.4481 346.876 49.8161 346.5 49.4411C346.223 49.1441 345.828 49.0261 345.373 49.0261C344.069 49.0261 342.805 50.4681 342.805 51.9101V55.7831H344.149V56.8111H339.782V55.7831Z" fill="#2A3238"/>
<path fill-rule="evenodd" clip-rule="evenodd" d="M356.636 54.0048V52.2468C356.458 52.3058 356.142 52.3648 355.667 52.4438C353.652 52.7598 352.922 53.1748 352.922 54.3608C352.922 55.3488 353.435 55.9018 354.462 55.9018C355.51 55.9018 356.636 55.0328 356.636 54.0048ZM351.242 54.6368C351.242 54.0638 351.44 53.4908 351.854 53.0568C352.546 52.3648 353.495 52.1078 355.233 51.8308C356.438 51.6338 356.636 51.5938 356.636 51.2578V50.3888C356.636 49.0848 355.984 48.6108 354.798 48.6108C354.107 48.6108 353.514 48.7888 353.099 49.1248C353.435 49.3018 353.633 49.6188 353.633 50.0328C353.633 50.6068 353.237 51.0408 352.605 51.0408C351.973 51.0408 351.558 50.5868 351.558 49.9738C351.558 48.6898 353.218 47.7808 355.055 47.7808C357.09 47.7808 358.177 48.6498 358.177 50.4478V55.0918C358.177 55.7038 358.375 55.8818 358.77 55.8818C359.105 55.8818 359.343 55.6058 359.56 55.0918L360.153 55.4278C359.698 56.4348 359.204 56.9098 358.315 56.9098C357.505 56.9098 356.834 56.4348 356.813 55.2698H356.755C356.162 56.2768 354.996 56.9488 353.791 56.9488C352.17 56.9488 351.242 56.0198 351.242 54.6368Z" fill="#2A3238"/>
<path fill-rule="evenodd" clip-rule="evenodd" d="M360.547 55.7831H362.029V48.9461H360.547V47.9191H363.531V50.2111C364.578 48.3931 365.743 47.7811 366.89 47.7811C368.391 47.7811 369.3 48.7691 369.3 50.5871V55.7831H370.782V56.8111H366.415V55.7831H367.779V51.2781C367.779 50.4481 367.641 49.8161 367.265 49.4411C366.988 49.1441 366.593 49.0261 366.138 49.0261C364.834 49.0261 363.57 50.4681 363.57 51.9101V55.7831H364.914V56.8111H360.547V55.7831Z" fill="#2A3238"/>
<path fill-rule="evenodd" clip-rule="evenodd" d="M371.87 52.5427C371.87 49.7367 373.688 47.7607 376.355 47.7607C378.292 47.7607 379.714 49.1237 379.714 50.2707C379.714 51.0407 379.279 51.6337 378.568 51.6337C377.896 51.6337 377.501 51.1397 377.501 50.5667C377.501 50.0927 377.817 49.6577 378.252 49.4997C377.935 49.0257 377.303 48.5907 376.296 48.5907C374.675 48.5907 373.529 50.0327 373.529 52.3447C373.529 54.5977 374.596 55.9607 376.375 55.9607C377.62 55.9607 378.489 55.2497 378.983 53.9257H379.833C379.318 55.9217 377.916 56.9887 376 56.9887C373.529 56.9887 371.87 55.1107 371.87 52.5427Z" fill="#2A3238"/>
<path fill-rule="evenodd" clip-rule="evenodd" d="M382.874 51.5942H387.518C387.38 49.7372 386.687 48.6102 385.325 48.6102C384.02 48.6102 383.072 49.6182 382.874 51.5942ZM382.854 52.4442C382.894 54.7552 384.02 55.9412 385.7 55.9412C386.786 55.9412 387.695 55.5262 388.229 54.2022H389.059C388.525 56.0402 387.202 56.9882 385.364 56.9882C382.775 56.9882 381.195 55.1112 381.195 52.4632C381.195 49.7562 383.052 47.7612 385.423 47.7612C388.012 47.7612 389.158 50.0922 389.098 52.4442H382.854Z" fill="#2A3238"/>
<path fill-rule="evenodd" clip-rule="evenodd" d="M327.492 75.5423C330.002 75.5423 330.969 74.7123 330.969 72.7953C330.969 71.2943 329.863 70.2663 327.414 70.2663H325.516V75.5423H327.492ZM327.472 69.3183C329.547 69.3183 330.377 68.3503 330.377 66.8293C330.377 65.4853 329.725 64.6943 327.552 64.6943H325.516V69.3183H327.472ZM321.663 75.5423H323.857V64.6943H321.663V63.6873H327.373C331.207 63.6873 332.155 65.1493 332.155 66.7893C332.155 67.8363 331.464 69.2983 328.915 69.7533V69.8123C331.503 70.0103 332.768 71.3333 332.768 72.9143C332.768 74.7723 331.681 76.5703 327.393 76.5703H321.663V75.5423Z" fill="#2A3238"/>
<path fill-rule="evenodd" clip-rule="evenodd" d="M339.743 73.7638V72.0058C339.565 72.0648 339.249 72.1238 338.774 72.2028C336.759 72.5188 336.029 72.9338 336.029 74.1198C336.029 75.1078 336.542 75.6608 337.569 75.6608C338.617 75.6608 339.743 74.7918 339.743 73.7638ZM334.349 74.3958C334.349 73.8228 334.546 73.2498 334.961 72.8158C335.653 72.1238 336.601 71.8668 338.34 71.5898C339.545 71.3928 339.743 71.3528 339.743 71.0168V70.1478C339.743 68.8438 339.091 68.3698 337.905 68.3698C337.214 68.3698 336.621 68.5478 336.206 68.8838C336.542 69.0608 336.74 69.3778 336.74 69.7918C336.74 70.3658 336.344 70.7998 335.712 70.7998C335.08 70.7998 334.665 70.3458 334.665 69.7328C334.665 68.4488 336.324 67.5398 338.162 67.5398C340.197 67.5398 341.284 68.4088 341.284 70.2068V74.8508C341.284 75.4628 341.482 75.6408 341.876 75.6408C342.212 75.6408 342.45 75.3648 342.667 74.8508L343.26 75.1868C342.805 76.1938 342.311 76.6688 341.422 76.6688C340.612 76.6688 339.941 76.1938 339.92 75.0288H339.862C339.269 76.0358 338.103 76.7078 336.897 76.7078C335.277 76.7078 334.349 75.7788 334.349 74.3958Z" fill="#2A3238"/>
<path fill-rule="evenodd" clip-rule="evenodd" d="M343.654 75.5423H345.136V68.7053H343.654V67.6783H346.638V69.9703C347.685 68.1523 348.851 67.5403 349.997 67.5403C351.498 67.5403 352.407 68.5283 352.407 70.3463V75.5423H353.889V76.5703H349.522V75.5423H350.886V71.0373C350.886 70.2073 350.748 69.5753 350.372 69.2003C350.095 68.9033 349.7 68.7853 349.245 68.7853C347.941 68.7853 346.677 70.2273 346.677 71.6693V75.5423H348.021V76.5703H343.654V75.5423Z" fill="#2A3238"/>
<path fill-rule="evenodd" clip-rule="evenodd" d="M360.113 71.1754L363.196 75.5424H364.322V76.5694H360.272V75.5614H361.457L359.106 72.1434L357.663 73.6054V75.5424H358.888V76.5694H354.64V75.5424H356.122V64.0624H354.64V62.9954H357.663V72.4994L361.259 68.6854H359.777V67.6784H363.887V68.7054H362.544L360.113 71.1754Z" fill="#2A3238"/>
</svg>
